<svg width="31" height="30" viewBox="0 0 31 30" fill="none" xmlns="http://www.w3.org/2000/svg">
<g clip-path="url(#clip0_3357_379)">
<g filter="url(#filter0_d_3357_379)">
<path d="M2.62797 16.4507H24.0595C27.1667 16.4507 29.6944 13.9228 29.6944 10.8158C29.6944 7.71328 27.1739 5.18833 24.073 5.18097C23.7675 5.17637 21.7839 5.20382 20.3027 6.64798C19.3104 7.61548 18.8073 8.9449 18.8073 10.5991C18.8073 11.3296 19.3994 11.9217 20.1299 11.9217C20.8603 11.9217 21.4523 11.3295 21.4523 10.5991C21.4523 9.69313 21.6826 9.00519 22.1364 8.55455C22.8437 7.8521 23.944 7.82681 24.032 7.82593C24.0443 7.82632 24.0428 7.82612 24.0594 7.82612C25.708 7.82612 27.0493 9.1673 27.0493 10.8158C27.0493 12.4644 25.7081 13.8055 24.0594 13.8055H2.62797C1.89753 13.8055 1.30542 14.3977 1.30542 15.1281C1.30542 15.8585 1.89753 16.4507 2.62797 16.4507Z" fill="white"/>
<path d="M2.62797 11.27H12.8433C15.9503 11.27 18.4781 8.74214 18.4781 5.63508C18.4781 2.53239 15.9578 0.0073367 12.8567 0.000277874C12.5476 -0.00403585 10.5671 0.0235132 9.08635 1.46729C8.0941 2.43489 7.59096 3.7643 7.59096 5.41851C7.59096 6.14895 8.18302 6.74116 8.91351 6.74116C9.644 6.74116 10.236 6.149 10.236 5.41851C10.236 4.51253 10.4662 3.82459 10.92 3.37395C11.6272 2.6716 12.7275 2.64611 12.8158 2.64523C12.8282 2.64562 12.8265 2.64542 12.8433 2.64542C14.4917 2.64542 15.833 3.9866 15.833 5.63508C15.833 7.28366 14.4918 8.62484 12.8433 8.62484H2.62797C1.89753 8.62484 1.30542 9.21699 1.30542 9.94748C1.30542 10.678 1.89753 11.27 2.62797 11.27Z" fill="white"/>
<path d="M24.0595 18.73H2.62797C1.89753 18.73 1.30542 19.3221 1.30542 20.0525C1.30542 20.7829 1.89748 21.3751 2.62797 21.3751H24.0595C25.7081 21.3751 27.0493 22.7163 27.0493 24.3647C27.0493 26.0133 25.7082 27.3545 24.0595 27.3545C24.0429 27.3545 24.0444 27.3542 24.032 27.3547C23.9439 27.3538 22.8437 27.3284 22.1364 26.6261C21.6826 26.1754 21.4524 25.4875 21.4524 24.5814C21.4524 23.851 20.8604 23.2588 20.1299 23.2588C19.3995 23.2588 18.8074 23.8509 18.8074 24.5814C18.8074 26.2357 19.3104 27.5651 20.3028 28.5326C21.7243 29.9188 23.607 30 24.028 29.9999C24.0457 29.9999 24.0607 29.9998 24.073 29.9996C27.174 29.9923 29.6944 27.4673 29.6944 24.3648C29.6944 21.2577 27.1667 18.73 24.0595 18.73Z" fill="white"/>
</g>
</g>
<defs>
<filter id="filter0_d_3357_379" x="-2.69458" y="0" width="36.389" height="37.9999" filterUnits="userSpaceOnUse" color-interpolation-filters="sRGB">
<feFlood flood-opacity="0" result="BackgroundImageFix"/>
<feColorMatrix in="SourceAlpha" type="matrix" values="0 0 0 0 0 0 0 0 0 0 0 0 0 0 0 0 0 0 127 0" result="hardAlpha"/>
<feOffset dy="4"/>
<feGaussianBlur stdDeviation="2"/>
<feComposite in2="hardAlpha" operator="out"/>
<feColorMatrix type="matrix" values="0 0 0 0 0 0 0 0 0 0 0 0 0 0 0 0 0 0 0.25 0"/>
<feBlend mode="normal" in2="BackgroundImageFix" result="effect1_dropShadow_3357_379"/>
<feBlend mode="normal" in="SourceGraphic" in2="effect1_dropShadow_3357_379" result="shape"/>
</filter>
<clipPath id="clip0_3357_379">
<rect width="30" height="30" fill="white" transform="translate(0.5)"/>
</clipPath>
</defs>
</svg>
